<?xml version="1.0" standalone="no"?>
<!DOCTYPE svg PUBLIC "-//W3C//DTD SVG 20010904//EN"
 "http://www.w3.org/TR/2001/REC-SVG-20010904/DTD/svg10.dtd">
<svg version="1.0" xmlns="http://www.w3.org/2000/svg"
 width="640.000000pt" height="432.000000pt" viewBox="0 0 640.000000 432.000000"
 preserveAspectRatio="xMidYMid meet">
<metadata>
Created by potrace 1.15, written by Peter Selinger 2001-2017
</metadata>
<g transform="translate(0.000000,432.000000) scale(0.100000,-0.100000)"
fill="#000000" stroke="none">
<path d="M2737 3973 c-3 -5 13 -62 35 -128 41 -127 47 -177 29 -286 -10 -60
-4 -136 12 -156 6 -9 6 -13 -1 -13 -5 0 -42 36 -82 80 -75 83 -148 140 -179
140 -27 0 -51 -32 -51 -67 0 -17 -6 -33 -12 -36 -7 -2 -10 -7 -7 -11 3 -3 13
-4 22 0 12 4 15 14 11 34 -4 15 -1 38 6 50 9 17 17 20 38 15 38 -9 47 -19 113
-115 32 -47 78 -113 103 -147 25 -34 50 -72 57 -85 12 -22 59 -191 55 -195 -2
-2 -15 -4 -30 -5 -15 -1 -41 -14 -59 -29 l-32 -27 39 -36 c29 -28 37 -42 32
-59 -3 -12 -6 -34 -6 -49 0 -16 -4 -28 -10 -28 -5 0 -10 7 -10 15 0 9 -6 12
-15 9 -9 -4 -15 -1 -15 7 0 16 -53 49 -79 49 -9 0 -23 6 -29 13 -9 8 -50 12
-130 12 -115 0 -155 -4 -168 -18 -4 -4 -15 -7 -25 -7 -9 0 -50 -16 -90 -35
-41 -19 -69 -35 -64 -35 6 0 -2 -7 -18 -15 -15 -8 -38 -21 -51 -28 -36 -19
-136 -114 -136 -128 0 -7 -3 -10 -6 -6 -16 16 -129 -152 -162 -243 -43 -119
-54 -215 -54 -475 0 -206 3 -256 21 -350 12 -60 24 -121 25 -135 5 -29 70
-230 90 -275 8 -16 17 -41 21 -55 10 -32 50 -104 81 -145 13 -17 21 -35 17
-38 -3 -4 -1 -7 5 -7 7 0 12 -5 12 -11 0 -6 18 -32 40 -58 22 -26 40 -51 40
-55 0 -11 40 -60 41 -50 0 9 21 -34 23 -48 1 -4 25 -29 54 -56 l54 -48 -13
-43 c-20 -66 8 -136 84 -212 77 -78 111 -95 322 -159 17 -5 89 -21 160 -36
114 -25 151 -28 305 -28 142 0 195 5 280 23 236 50 490 134 562 186 18 14 43
29 55 34 21 10 45 43 49 69 1 8 5 16 8 19 3 3 -22 32 -54 64 l-59 59 32 23
c116 84 147 109 192 154 106 106 246 285 260 333 4 14 13 34 19 45 16 25 29
63 70 200 32 104 42 143 52 190 9 42 3 203 -7 220 -4 6 -10 30 -14 55 -4 25
-11 52 -15 60 -5 8 -11 38 -15 65 -3 28 -8 60 -10 72 -6 40 6 63 31 63 15 0
22 -5 18 -13 -2 -7 2 -27 11 -43 8 -16 15 -35 15 -41 0 -7 9 -27 19 -44 l19
-31 7 56 c5 36 2 91 -8 153 -9 54 -18 112 -21 128 -18 116 -33 170 -66 241
-38 81 -114 206 -131 212 -5 2 -9 8 -9 13 0 11 -113 119 -160 154 -19 13 -53
34 -75 45 l-40 20 70 0 c119 1 142 10 217 89 37 38 84 95 104 126 32 48 36 58
26 80 -6 14 -16 25 -22 25 -13 0 -13 -17 0 -25 13 -8 -13 -55 -63 -117 -47
-60 -86 -95 -137 -126 -39 -23 -55 -26 -115 -24 -116 4 -154 7 -149 11 7 8
-100 52 -113 46 -11 -4 -12 0 -6 18 4 12 7 49 6 82 -2 57 -1 61 25 73 41 18
123 84 140 112 10 16 -2 9 -34 -21 -47 -44 -115 -89 -135 -89 -5 0 -9 13 -9
28 0 16 -7 52 -16 82 -18 62 -10 77 47 89 34 7 34 7 7 13 -15 3 -38 0 -50 -6
-22 -11 -23 -19 -26 -119 -3 -107 -3 -108 -30 -119 -15 -6 -104 -13 -198 -16
l-171 -4 -6 28 c-3 16 -1 50 3 75 18 93 22 212 8 220 -10 7 -10 9 0 9 6 0 12
9 12 20 0 12 11 66 25 121 29 120 26 150 -21 175 -31 17 -37 17 -61 4 -22 -13
-30 -30 -49 -105 -30 -120 -53 -207 -61 -225 -3 -8 -8 -26 -10 -40 -8 -49 -47
-116 -92 -156 -42 -39 -45 -45 -43 -85 2 -37 0 -42 -10 -29 -9 11 -22 14 -43
9 -16 -4 -48 -7 -69 -8 -38 -1 -39 -1 -21 -21 10 -11 16 -22 13 -25 -3 -3 -34
27 -69 67 -35 40 -91 102 -125 138 -40 42 -64 77 -69 100 -4 19 -9 116 -10
215 -3 187 -16 294 -41 332 -16 25 -51 47 -57 36z m-158 -1640 c22 -19 42 -48
63 -95 7 -16 16 -28 20 -28 20 0 27 -39 12 -69 -8 -17 -19 -31 -22 -32 -4 0
-15 -2 -26 -4 -26 -5 -104 72 -110 110 -2 17 -5 32 -6 35 -1 3 -1 21 0 40 3
59 29 75 69 43z m247 -179 c55 -14 171 -78 166 -93 -3 -10 2 -12 21 -7 32 8
60 -2 53 -20 -7 -18 13 -29 27 -15 6 6 27 11 47 11 19 0 71 11 114 25 101 32
121 33 179 7 35 -16 47 -27 48 -44 2 -39 -2 -50 -24 -69 -54 -44 -233 -46
-322 -3 -27 13 -46 24 -42 24 5 0 5 5 2 10 -4 7 -13 7 -24 0 -12 -6 -21 -6
-28 1 -9 9 -42 16 -113 24 -80 9 -144 23 -148 34 -2 6 -10 11 -18 11 -7 0 -21
12 -31 28 -10 15 -20 29 -24 32 -4 3 -4 19 -2 36 4 26 9 30 28 26 12 -2 26 2
30 9 6 9 11 8 20 -4 6 -9 24 -19 41 -23z"/>
</g>
</svg>
